<svg xmlns="http://www.w3.org/2000/svg" viewBox="0 0 225 150" fill-rule="evenodd"><path fill="#e8504b" d="M0 0h225v150H0z"/><path d="M90.136 65.013c-1.075-2.94-2.61-5.454-4.606-7.539s-4.404-3.682-7.218-4.799S72.353 51 68.873 51s-6.626.559-9.439 1.676-5.219 2.716-7.217 4.799-3.533 4.598-4.606 7.539S46 71.274 46 74.968c0 3.652.538 6.959 1.611 9.923s2.61 5.499 4.606 7.603 4.402 3.715 7.217 4.832S65.395 99 68.873 99s6.626-.558 9.438-1.674 5.22-2.728 7.218-4.832 3.531-4.639 4.606-7.603 1.61-6.271 1.61-9.923c0-3.694-.538-7.011-1.61-9.954zm-10.18 18.266c-.989 2.278-2.428 4.027-4.316 5.252s-4.147 1.835-6.767 1.835-4.875-.611-6.764-1.835-3.33-2.974-4.318-5.252-1.483-5.046-1.483-8.312.495-6.033 1.483-8.312 2.426-4.016 4.318-5.219 4.144-1.804 6.764-1.804 4.875.602 6.767 1.804 3.327 2.944 4.316 5.219 1.482 5.048 1.482 8.312-.494 6.037-1.482 8.312zm47.96 14.755-10.18-16.141-10.18-15.688v31.828H98.02V51.966h10.052l10.276 15.625 10.084 15.882V51.967h9.535v46.067h-10.051zm18.128-46.067h31.699v8.247h-21.777V70.2h19.33v8.247h-19.33v11.34h23.002v8.247h-32.923V51.967z" fill="#fff" fill-rule="nonzero"/></svg>