<svg xmlns="http://www.w3.org/2000/svg" viewBox="0 0 225 150">
  <path fill="#89FF00" d="M0 0h225v150H0z"/>
  <path d="M26 56h32.1v7.122H46.143V94h-8.185V63.122H26V56Zm61.704 38V77.684H71.175V94H62.99V56h8.185v14.562h16.53V56h8.183v38h-8.184Zm23.012-13.818V94h-8.079V56h13.871c4.996 0 8.832 1.044 11.506 3.135 2.675 2.09 4.014 5.085 4.014 8.981 0 2.518-.594 4.661-1.781 6.432-1.187 1.772-2.879 3.136-5.076 4.093 1.595 2.516 3.17 5.04 4.73 7.573A434.612 434.612 0 0 1 134.578 94h-9.408a379.714 379.714 0 0 0-7.918-13.818h-6.538Zm0-6.432h5.313c2.516 0 4.43-.451 5.74-1.355 1.31-.903 1.967-2.33 1.967-4.279 0-1.947-.647-3.382-1.94-4.304-1.293-.92-3.197-1.381-5.713-1.381h-5.367v11.32ZM138.723 56h26.148v6.803h-17.964v8.237h15.945v6.803h-15.945v9.354h18.974V94h-27.158V56Zm32.153 0h26.149v6.803H179.06v8.237h15.943v6.803H179.06v9.354h18.974V94h-27.16V56Z" fill="#000" fill-rule="nonzero"/>
</svg>
